<?xml version="1.0" encoding="UTF-8" standalone="no"?>
<!-- Created with Inkscape (http://www.inkscape.org/) -->

<svg
   xmlns:dc="http://purl.org/dc/elements/1.1/"
   xmlns:cc="http://creativecommons.org/ns#"
   xmlns:rdf="http://www.w3.org/1999/02/22-rdf-syntax-ns#"
   xmlns:svg="http://www.w3.org/2000/svg"
   xmlns="http://www.w3.org/2000/svg"
   xmlns:sodipodi="http://sodipodi.sourceforge.net/DTD/sodipodi-0.dtd"
   xmlns:inkscape="http://www.inkscape.org/namespaces/inkscape"
   width="250"
   height="200"
   id="svg2"
   version="1.1"
   inkscape:version="0.48.4 r9939"
   sodipodi:docname="Pcbnew_array_grid_stagger_rows_2.svg"
   inkscape:export-filename="/home/john/src/kicad/kicad-doc/src/Pcbnew/images/Pcbnew_array_grid_stagger_rows_2.png"
   inkscape:export-xdpi="90"
   inkscape:export-ydpi="90">
  <defs
     id="defs4" />
  <sodipodi:namedview
     id="base"
     pagecolor="#ffffff"
     bordercolor="#666666"
     borderopacity="1.0"
     inkscape:pageopacity="0.0"
     inkscape:pageshadow="2"
     inkscape:zoom="2"
     inkscape:cx="223.06707"
     inkscape:cy="110.23268"
     inkscape:document-units="px"
     inkscape:current-layer="layer1"
     showgrid="true"
     inkscape:snap-center="true"
     inkscape:snap-object-midpoints="true"
     inkscape:window-width="1920"
     inkscape:window-height="1005"
     inkscape:window-x="0"
     inkscape:window-y="25"
     inkscape:window-maximized="1">
    <inkscape:grid
       type="xygrid"
       id="grid2985"
       empspacing="5"
       visible="true"
       enabled="true"
       snapvisiblegridlinesonly="true"
       spacingx="5px"
       spacingy="5px" />
  </sodipodi:namedview>
  <metadata
     id="metadata7">
    <rdf:RDF>
      <cc:Work
         rdf:about="">
        <dc:format>image/svg+xml</dc:format>
        <dc:type
           rdf:resource="http://purl.org/dc/dcmitype/StillImage" />
        <dc:title></dc:title>
      </cc:Work>
    </rdf:RDF>
  </metadata>
  <g
     inkscape:label="Layer 1"
     inkscape:groupmode="layer"
     id="layer1"
     transform="translate(0,-852.36217)">
    <path
       sodipodi:type="arc"
       style="fill:#204a87;stroke:none"
       id="path2993"
       sodipodi:cx="75"
       sodipodi:cy="75"
       sodipodi:rx="10"
       sodipodi:ry="10"
       d="m 85,75 c 0,5.522847 -4.477153,10 -10,10 -5.522847,0 -10,-4.477153 -10,-10 0,-5.522847 4.477153,-10 10,-10 5.522847,0 10,4.477153 10,10 z"
       transform="translate(30,827.36217)" />
    <path
       transform="translate(-50,827.36217)"
       d="m 85,75 c 0,5.522847 -4.477153,10 -10,10 -5.522847,0 -10,-4.477153 -10,-10 0,-5.522847 4.477153,-10 10,-10 5.522847,0 10,4.477153 10,10 z"
       sodipodi:ry="10"
       sodipodi:rx="10"
       sodipodi:cy="75"
       sodipodi:cx="75"
       id="path3005"
       style="fill:#204a87;stroke:none"
       sodipodi:type="arc" />
    <path
       sodipodi:type="arc"
       style="fill:#204a87;stroke:none"
       id="path3007"
       sodipodi:cx="75"
       sodipodi:cy="75"
       sodipodi:rx="10"
       sodipodi:ry="10"
       d="m 85,75 c 0,5.522847 -4.477153,10 -10,10 -5.522847,0 -10,-4.477153 -10,-10 0,-5.522847 4.477153,-10 10,-10 5.522847,0 10,4.477153 10,10 z"
       transform="translate(110,827.36217)" />
    <path
       transform="translate(-10,877.36217)"
       d="m 85,75 c 0,5.522847 -4.477153,10 -10,10 -5.522847,0 -10,-4.477153 -10,-10 0,-5.522847 4.477153,-10 10,-10 5.522847,0 10,4.477153 10,10 z"
       sodipodi:ry="10"
       sodipodi:rx="10"
       sodipodi:cy="75"
       sodipodi:cx="75"
       id="path3009"
       style="fill:#f57900;stroke:none"
       sodipodi:type="arc" />
    <path
       sodipodi:type="arc"
       style="fill:#f57900;stroke:none"
       id="path3011"
       sodipodi:cx="75"
       sodipodi:cy="75"
       sodipodi:rx="10"
       sodipodi:ry="10"
       d="m 85,75 c 0,5.522847 -4.477153,10 -10,10 -5.522847,0 -10,-4.477153 -10,-10 0,-5.522847 4.477153,-10 10,-10 5.522847,0 10,4.477153 10,10 z"
       transform="translate(70,877.36217)" />
    <path
       transform="translate(30,927.36217)"
       d="m 85,75 c 0,5.522847 -4.477153,10 -10,10 -5.522847,0 -10,-4.477153 -10,-10 0,-5.522847 4.477153,-10 10,-10 5.522847,0 10,4.477153 10,10 z"
       sodipodi:ry="10"
       sodipodi:rx="10"
       sodipodi:cy="75"
       sodipodi:cx="75"
       id="path3013"
       style="fill:#204a87;stroke:none"
       sodipodi:type="arc" />
    <path
       sodipodi:type="arc"
       style="fill:#204a87;stroke:none"
       id="path3015"
       sodipodi:cx="75"
       sodipodi:cy="75"
       sodipodi:rx="10"
       sodipodi:ry="10"
       d="m 85,75 c 0,5.522847 -4.477153,10 -10,10 -5.522847,0 -10,-4.477153 -10,-10 0,-5.522847 4.477153,-10 10,-10 5.522847,0 10,4.477153 10,10 z"
       transform="translate(-50,927.36217)" />
    <path
       transform="translate(110,927.36217)"
       d="m 85,75 c 0,5.522847 -4.477153,10 -10,10 -5.522847,0 -10,-4.477153 -10,-10 0,-5.522847 4.477153,-10 10,-10 5.522847,0 10,4.477153 10,10 z"
       sodipodi:ry="10"
       sodipodi:rx="10"
       sodipodi:cy="75"
       sodipodi:cx="75"
       id="path3017"
       style="fill:#204a87;stroke:none"
       sodipodi:type="arc" />
    <path
       style="fill:none;stroke:#000000;stroke-width:2;stroke-linecap:butt;stroke-linejoin:miter;stroke-opacity:1"
       d="m 25,887.36217 0,-25"
       id="path3023"
       inkscape:connector-curvature="0" />
    <path
       style="fill:none;stroke:#000000;stroke-width:2;stroke-linecap:butt;stroke-linejoin:miter;stroke-opacity:1"
       d="m 65,862.36217 0,75"
       id="path3025"
       inkscape:connector-curvature="0" />
    <path
       style="fill:none;stroke:#000000;stroke-width:2;stroke-linecap:butt;stroke-linejoin:miter;stroke-opacity:1"
       d="m 105,862.36217 0,25"
       id="path3027"
       inkscape:connector-curvature="0" />
    <path
       style="fill:none;stroke:#000000;stroke-width:2;stroke-linecap:butt;stroke-linejoin:miter;stroke-opacity:1"
       d="m 25,872.36217 80,0"
       id="path3033"
       inkscape:connector-curvature="0" />
    <path
       style="fill:#000000;stroke:none"
       d="m 24,872.36217 10,-3 0,6 z"
       id="path3035"
       inkscape:connector-curvature="0"
       sodipodi:nodetypes="cccc" />
    <path
       sodipodi:nodetypes="cccc"
       inkscape:connector-curvature="0"
       id="path3037"
       d="m 66,872.36217 -10,3 0,-6 z"
       style="fill:#000000;stroke:none" />
    <path
       style="fill:#000000;stroke:none"
       d="m 64,872.36217 10,-3 0,6 z"
       id="path3039"
       inkscape:connector-curvature="0"
       sodipodi:nodetypes="cccc" />
    <path
       sodipodi:nodetypes="cccc"
       inkscape:connector-curvature="0"
       id="path3041"
       d="m 106,872.36217 -10,3 0,-6 z"
       style="fill:#000000;stroke:none" />
    <path
       style="fill:none;stroke:#000000;stroke-width:2;stroke-linecap:butt;stroke-linejoin:miter;stroke-opacity:1"
       d="m 42,878.86217 6,-12.5"
       id="path3043"
       inkscape:connector-curvature="0"
       sodipodi:nodetypes="cc" />
    <path
       inkscape:connector-curvature="0"
       id="path3045"
       d="m 82,878.36217 6,-12"
       style="fill:none;stroke:#000000;stroke-width:2;stroke-linecap:butt;stroke-linejoin:miter;stroke-opacity:1"
       sodipodi:nodetypes="cc" />
    <path
       transform="translate(150,877.36217)"
       d="m 85,75 c 0,5.522847 -4.477153,10 -10,10 -5.522847,0 -10,-4.477153 -10,-10 0,-5.522847 4.477153,-10 10,-10 5.522847,0 10,4.477153 10,10 z"
       sodipodi:ry="10"
       sodipodi:rx="10"
       sodipodi:cy="75"
       sodipodi:cx="75"
       id="path3173"
       style="fill:#f57900;stroke:none"
       sodipodi:type="arc" />
  </g>
</svg>
