<?xml version="1.0" encoding="UTF-8" standalone="no"?>
<!-- Created with Inkscape (http://www.inkscape.org/) -->

<svg
   xmlns:dc="http://purl.org/dc/elements/1.1/"
   xmlns:cc="http://creativecommons.org/ns#"
   xmlns:rdf="http://www.w3.org/1999/02/22-rdf-syntax-ns#"
   xmlns:svg="http://www.w3.org/2000/svg"
   xmlns="http://www.w3.org/2000/svg"
   xmlns:sodipodi="http://sodipodi.sourceforge.net/DTD/sodipodi-0.dtd"
   xmlns:inkscape="http://www.inkscape.org/namespaces/inkscape"
   width="200"
   height="225"
   id="svg2"
   version="1.1"
   inkscape:version="0.48.4 r9939"
   sodipodi:docname="Pcbnew_array_grid_stagger_cols_3.svg"
   inkscape:export-filename="/home/john/src/kicad/kicad-doc/src/Pcbnew/images/Pcbnew_array_grid_stagger_cols_3.png"
   inkscape:export-xdpi="90"
   inkscape:export-ydpi="90">
  <defs
     id="defs4" />
  <sodipodi:namedview
     id="base"
     pagecolor="#ffffff"
     bordercolor="#666666"
     borderopacity="1.0"
     inkscape:pageopacity="0.0"
     inkscape:pageshadow="2"
     inkscape:zoom="2"
     inkscape:cx="168.17308"
     inkscape:cy="139.67699"
     inkscape:document-units="px"
     inkscape:current-layer="layer1"
     showgrid="true"
     inkscape:snap-center="true"
     inkscape:snap-object-midpoints="true"
     inkscape:window-width="1920"
     inkscape:window-height="1005"
     inkscape:window-x="0"
     inkscape:window-y="25"
     inkscape:window-maximized="1">
    <inkscape:grid
       type="xygrid"
       id="grid2985"
       empspacing="5"
       visible="true"
       enabled="true"
       snapvisiblegridlinesonly="true"
       spacingx="5px"
       spacingy="5px" />
  </sodipodi:namedview>
  <metadata
     id="metadata7">
    <rdf:RDF>
      <cc:Work
         rdf:about="">
        <dc:format>image/svg+xml</dc:format>
        <dc:type
           rdf:resource="http://purl.org/dc/dcmitype/StillImage" />
        <dc:title></dc:title>
      </cc:Work>
    </rdf:RDF>
  </metadata>
  <g
     inkscape:label="Layer 1"
     inkscape:groupmode="layer"
     id="layer1"
     transform="translate(0,-827.36217)">
    <path
       sodipodi:type="arc"
       style="fill:#f57900;stroke:none"
       id="path2993"
       sodipodi:cx="75"
       sodipodi:cy="75"
       sodipodi:rx="10"
       sodipodi:ry="10"
       d="m 85,75 a 10,10 0 1 1 -20,0 10,10 0 1 1 20,0 z"
       transform="translate(-9.5,787.36217)" />
    <path
       transform="translate(-59.5,762.36217)"
       d="m 85,75 a 10,10 0 1 1 -20,0 10,10 0 1 1 20,0 z"
       sodipodi:ry="10"
       sodipodi:rx="10"
       sodipodi:cy="75"
       sodipodi:cx="75"
       id="path3005"
       style="fill:#204a87;stroke:none"
       sodipodi:type="arc" />
    <path
       style="fill:none;stroke:#000000;stroke-width:2;stroke-linecap:butt;stroke-linejoin:miter;stroke-opacity:1"
       d="m 185,837.36217 10,0"
       id="path3023"
       inkscape:connector-curvature="0"
       sodipodi:nodetypes="cc" />
    <path
       style="fill:none;stroke:#000000;stroke-width:2;stroke-linecap:butt;stroke-linejoin:miter;stroke-opacity:1"
       d="m 195,862.36217 -115,0"
       id="path3025"
       inkscape:connector-curvature="0"
       sodipodi:nodetypes="cc" />
    <path
       style="fill:none;stroke:#000000;stroke-width:2;stroke-linecap:butt;stroke-linejoin:miter;stroke-opacity:1"
       d="m 195,887.36217 -65,0"
       id="path3027"
       inkscape:connector-curvature="0"
       sodipodi:nodetypes="cc" />
    <path
       style="fill:none;stroke:#000000;stroke-width:2;stroke-linecap:butt;stroke-linejoin:miter;stroke-opacity:1"
       d="m 190,837.36217 0,75"
       id="path3033"
       inkscape:connector-curvature="0"
       sodipodi:nodetypes="cc" />
    <path
       style="fill:#000000;stroke:none"
       d="m 190,836.36217 3,10 -6,0 z"
       id="path3035"
       inkscape:connector-curvature="0"
       sodipodi:nodetypes="cccc" />
    <path
       sodipodi:nodetypes="cccc"
       inkscape:connector-curvature="0"
       id="path3037"
       d="m 190,863.36217 -3,-10 6,0 z"
       style="fill:#000000;stroke:none" />
    <path
       style="fill:#000000;stroke:none"
       d="m 190,861.36217 3,10 -6,0 z"
       id="path3039"
       inkscape:connector-curvature="0"
       sodipodi:nodetypes="cccc" />
    <path
       sodipodi:nodetypes="cccc"
       inkscape:connector-curvature="0"
       id="path3041"
       d="m 190,888.36217 -3,-10 6,0 z"
       style="fill:#000000;stroke:none" />
    <path
       style="fill:none;stroke:#000000;stroke-width:2;stroke-linecap:butt;stroke-linejoin:miter;stroke-opacity:1"
       d="m 183.5,846.86217 12.5,6"
       id="path3043"
       inkscape:connector-curvature="0"
       sodipodi:nodetypes="cc" />
    <path
       inkscape:connector-curvature="0"
       id="path3045"
       d="m 184,871.86217 12,6"
       style="fill:none;stroke:#000000;stroke-width:2;stroke-linecap:butt;stroke-linejoin:miter;stroke-opacity:1"
       sodipodi:nodetypes="cc" />
    <path
       transform="translate(40.5,811.86217)"
       d="m 85,75 a 10,10 0 1 1 -20,0 10,10 0 1 1 20,0 z"
       sodipodi:ry="10"
       sodipodi:rx="10"
       sodipodi:cy="75"
       sodipodi:cx="75"
       id="path3068"
       style="fill:#4e9a06;stroke:none"
       sodipodi:type="arc" />
    <path
       transform="translate(-9.5,862.36217)"
       d="m 85,75 a 10,10 0 1 1 -20,0 10,10 0 1 1 20,0 z"
       sodipodi:ry="10"
       sodipodi:rx="10"
       sodipodi:cy="75"
       sodipodi:cx="75"
       id="path3070"
       style="fill:#f57900;stroke:none"
       sodipodi:type="arc" />
    <path
       sodipodi:type="arc"
       style="fill:#204a87;stroke:none"
       id="path3078"
       sodipodi:cx="75"
       sodipodi:cy="75"
       sodipodi:rx="10"
       sodipodi:ry="10"
       d="m 85,75 a 10,10 0 1 1 -20,0 10,10 0 1 1 20,0 z"
       transform="translate(90.5,762.36217)" />
    <path
       transform="translate(90.5,837.36217)"
       d="m 85,75 a 10,10 0 1 1 -20,0 10,10 0 1 1 20,0 z"
       sodipodi:ry="10"
       sodipodi:rx="10"
       sodipodi:cy="75"
       sodipodi:cx="75"
       id="path3080"
       style="fill:#204a87;stroke:none"
       sodipodi:type="arc" />
    <path
       sodipodi:nodetypes="cc"
       inkscape:connector-curvature="0"
       id="path3106"
       d="m 180,912.36217 15,0"
       style="fill:none;stroke:#000000;stroke-width:2;stroke-linecap:butt;stroke-linejoin:miter;stroke-opacity:1" />
    <path
       sodipodi:nodetypes="cccc"
       inkscape:connector-curvature="0"
       id="path3108"
       d="m 190,886.36217 3,10 -6,0 z"
       style="fill:#000000;stroke:none" />
    <path
       style="fill:#000000;stroke:none"
       d="m 190,913.36217 -3,-10 6,0 z"
       id="path3110"
       inkscape:connector-curvature="0"
       sodipodi:nodetypes="cccc" />
    <path
       sodipodi:nodetypes="cc"
       style="fill:none;stroke:#000000;stroke-width:2;stroke-linecap:butt;stroke-linejoin:miter;stroke-opacity:1"
       d="m 184,896.86217 12,6"
       id="path3112"
       inkscape:connector-curvature="0" />
    <path
       sodipodi:type="arc"
       style="fill:#4e9a06;stroke:none"
       id="path3116"
       sodipodi:cx="75"
       sodipodi:cy="75"
       sodipodi:rx="10"
       sodipodi:ry="10"
       d="m 85,75 a 10,10 0 1 1 -20,0 10,10 0 1 1 20,0 z"
       transform="translate(40.5,887.36217)" />
    <path
       sodipodi:type="arc"
       style="fill:#204a87;stroke:none"
       id="path3118"
       sodipodi:cx="75"
       sodipodi:cy="75"
       sodipodi:rx="10"
       sodipodi:ry="10"
       d="m 85,75 a 10,10 0 1 1 -20,0 10,10 0 1 1 20,0 z"
       transform="translate(-59.5,837.36217)" />
    <path
       transform="translate(-59.5,912.86217)"
       d="m 85,75 a 10,10 0 1 1 -20,0 10,10 0 1 1 20,0 z"
       sodipodi:ry="10"
       sodipodi:rx="10"
       sodipodi:cy="75"
       sodipodi:cx="75"
       id="path3120"
       style="fill:#204a87;stroke:none"
       sodipodi:type="arc" />
    <path
       sodipodi:type="arc"
       style="fill:#204a87;stroke:none"
       id="path3122"
       sodipodi:cx="75"
       sodipodi:cy="75"
       sodipodi:rx="10"
       sodipodi:ry="10"
       d="m 85,75 a 10,10 0 1 1 -20,0 10,10 0 1 1 20,0 z"
       transform="translate(90.5,912.86217)" />
    <path
       sodipodi:type="arc"
       style="fill:#f57900;stroke:none"
       id="path3177"
       sodipodi:cx="75"
       sodipodi:cy="75"
       sodipodi:rx="10"
       sodipodi:ry="10"
       d="m 85,75 a 10,10 0 1 1 -20,0 10,10 0 1 1 20,0 z"
       transform="translate(-9.5,937.36217)" />
    <path
       transform="translate(40.5,962.36217)"
       d="m 85,75 a 10,10 0 1 1 -20,0 10,10 0 1 1 20,0 z"
       sodipodi:ry="10"
       sodipodi:rx="10"
       sodipodi:cy="75"
       sodipodi:cx="75"
       id="path3181"
       style="fill:#4e9a06;stroke:none"
       sodipodi:type="arc" />
  </g>
</svg>
