<?xml version="1.0" encoding="UTF-8" standalone="no"?>
<!-- Created with Inkscape (http://www.inkscape.org/) -->

<svg
   xmlns:dc="http://purl.org/dc/elements/1.1/"
   xmlns:cc="http://creativecommons.org/ns#"
   xmlns:rdf="http://www.w3.org/1999/02/22-rdf-syntax-ns#"
   xmlns:svg="http://www.w3.org/2000/svg"
   xmlns="http://www.w3.org/2000/svg"
   xmlns:sodipodi="http://sodipodi.sourceforge.net/DTD/sodipodi-0.dtd"
   xmlns:inkscape="http://www.inkscape.org/namespaces/inkscape"
   width="250"
   height="160"
   id="svg2"
   version="1.1"
   inkscape:version="0.48.4 r9939"
   sodipodi:docname="Pcbnew_array_grid_offsets.svg"
   inkscape:export-filename="/home/john/src/kicad/kicad-doc/src/Pcbnew/images/Pcbnew_array_grid_stagger_rows_2.png"
   inkscape:export-xdpi="90"
   inkscape:export-ydpi="90">
  <defs
     id="defs4" />
  <sodipodi:namedview
     id="base"
     pagecolor="#ffffff"
     bordercolor="#666666"
     borderopacity="1.0"
     inkscape:pageopacity="0.0"
     inkscape:pageshadow="2"
     inkscape:zoom="2.8284271"
     inkscape:cx="173.15888"
     inkscape:cy="75.723037"
     inkscape:document-units="px"
     inkscape:current-layer="layer1"
     showgrid="true"
     inkscape:snap-center="false"
     inkscape:snap-object-midpoints="true"
     inkscape:window-width="1920"
     inkscape:window-height="1005"
     inkscape:window-x="0"
     inkscape:window-y="25"
     inkscape:window-maximized="1"
     inkscape:object-paths="true"
     inkscape:object-nodes="true">
    <inkscape:grid
       type="xygrid"
       id="grid2985"
       empspacing="5"
       visible="true"
       enabled="true"
       snapvisiblegridlinesonly="true"
       spacingx="5px"
       spacingy="5px" />
  </sodipodi:namedview>
  <metadata
     id="metadata7">
    <rdf:RDF>
      <cc:Work
         rdf:about="">
        <dc:format>image/svg+xml</dc:format>
        <dc:type
           rdf:resource="http://purl.org/dc/dcmitype/StillImage" />
        <dc:title></dc:title>
      </cc:Work>
    </rdf:RDF>
  </metadata>
  <g
     inkscape:label="Layer 1"
     inkscape:groupmode="layer"
     id="layer1"
     transform="translate(0,-892.36217)">
    <path
       sodipodi:type="arc"
       style="fill:#204a87;stroke:none"
       id="path2993"
       sodipodi:cx="75"
       sodipodi:cy="75"
       sodipodi:rx="10"
       sodipodi:ry="10"
       d="m 85,75 c 0,5.522847 -4.477153,10 -10,10 -5.522847,0 -10,-4.477153 -10,-10 0,-5.522847 4.477153,-10 10,-10 5.522847,0 10,4.477153 10,10 z"
       transform="translate(30,847.36217)" />
    <path
       transform="translate(-50,832.36217)"
       d="m 85,75 c 0,5.522847 -4.477153,10 -10,10 -5.522847,0 -10,-4.477153 -10,-10 0,-5.522847 4.477153,-10 10,-10 5.522847,0 10,4.477153 10,10 z"
       sodipodi:ry="10"
       sodipodi:rx="10"
       sodipodi:cy="75"
       sodipodi:cx="75"
       id="path3005"
       style="fill:#204a87;stroke:none"
       sodipodi:type="arc" />
    <path
       sodipodi:type="arc"
       style="fill:#204a87;stroke:none"
       id="path3007"
       sodipodi:cx="75"
       sodipodi:cy="75"
       sodipodi:rx="10"
       sodipodi:ry="10"
       d="m 85,75 c 0,5.522847 -4.477153,10 -10,10 -5.522847,0 -10,-4.477153 -10,-10 0,-5.522847 4.477153,-10 10,-10 5.522847,0 10,4.477153 10,10 z"
       transform="translate(110,862.36217)" />
    <path
       transform="translate(-25,882.36217)"
       d="m 85,75 c 0,5.522847 -4.477153,10 -10,10 -5.522847,0 -10,-4.477153 -10,-10 0,-5.522847 4.477153,-10 10,-10 5.522847,0 10,4.477153 10,10 z"
       sodipodi:ry="10"
       sodipodi:rx="10"
       sodipodi:cy="75"
       sodipodi:cx="75"
       id="path3009"
       style="fill:#204a87;stroke:none"
       sodipodi:type="arc" />
    <path
       sodipodi:type="arc"
       style="fill:#204a87;stroke:none"
       id="path3011"
       sodipodi:cx="75"
       sodipodi:cy="75"
       sodipodi:rx="10"
       sodipodi:ry="10"
       d="m 85,75 c 0,5.522847 -4.477153,10 -10,10 -5.522847,0 -10,-4.477153 -10,-10 0,-5.522847 4.477153,-10 10,-10 5.522847,0 10,4.477153 10,10 z"
       transform="translate(55,897.36217)" />
    <path
       transform="translate(80,947.36217)"
       d="m 85,75 c 0,5.522847 -4.477153,10 -10,10 -5.522847,0 -10,-4.477153 -10,-10 0,-5.522847 4.477153,-10 10,-10 5.522847,0 10,4.477153 10,10 z"
       sodipodi:ry="10"
       sodipodi:rx="10"
       sodipodi:cy="75"
       sodipodi:cx="75"
       id="path3013"
       style="fill:#204a87;stroke:none"
       sodipodi:type="arc" />
    <path
       sodipodi:type="arc"
       style="fill:#204a87;stroke:none"
       id="path3015"
       sodipodi:cx="75"
       sodipodi:cy="75"
       sodipodi:rx="10"
       sodipodi:ry="10"
       d="m 85,75 c 0,5.522847 -4.477153,10 -10,10 -5.522847,0 -10,-4.477153 -10,-10 0,-5.522847 4.477153,-10 10,-10 5.522847,0 10,4.477153 10,10 z"
       transform="translate(0,932.36217)" />
    <path
       transform="translate(160,962.36217)"
       d="m 85,75 c 0,5.522847 -4.477153,10 -10,10 -5.522847,0 -10,-4.477153 -10,-10 0,-5.522847 4.477153,-10 10,-10 5.522847,0 10,4.477153 10,10 z"
       sodipodi:ry="10"
       sodipodi:rx="10"
       sodipodi:cy="75"
       sodipodi:cx="75"
       id="path3017"
       style="fill:#204a87;stroke:none"
       sodipodi:type="arc" />
    <path
       transform="translate(135,912.36217)"
       d="m 85,75 c 0,5.522847 -4.477153,10 -10,10 -5.522847,0 -10,-4.477153 -10,-10 0,-5.522847 4.477153,-10 10,-10 5.522847,0 10,4.477153 10,10 z"
       sodipodi:ry="10"
       sodipodi:rx="10"
       sodipodi:cy="75"
       sodipodi:cx="75"
       id="path3173"
       style="fill:#204a87;stroke:none"
       sodipodi:type="arc" />
    <path
       style="fill:none;stroke:#000000;stroke-width:2;stroke-linecap:butt;stroke-linejoin:miter;stroke-opacity:1"
       d="m 25,997.36217 0,-75"
       id="path3025-8"
       inkscape:connector-curvature="0" />
    <path
       style="fill:none;stroke:#000000;stroke-width:2;stroke-linecap:butt;stroke-linejoin:miter;stroke-opacity:1"
       d="m 50,997.36217 0,-25"
       id="path3027-8"
       inkscape:connector-curvature="0" />
    <path
       style="fill:#000000;stroke:none"
       d="m 24,987.36217 10,3 0,-6 z"
       id="path3039-6"
       inkscape:connector-curvature="0"
       sodipodi:nodetypes="cccc" />
    <path
       sodipodi:nodetypes="cccc"
       inkscape:connector-curvature="0"
       id="path3041-6"
       d="m 51,987.36217 -10,-3 0,6 z"
       style="fill:#000000;stroke:none" />
    <path
       inkscape:connector-curvature="0"
       id="path3059"
       d="m 50,987.36217 -25,0"
       style="fill:none;stroke:#000000;stroke-width:2;stroke-linecap:butt;stroke-linejoin:miter;stroke-opacity:1"
       sodipodi:nodetypes="cc" />
    <path
       inkscape:connector-curvature="0"
       id="path3061"
       d="m 195,922.36217 -75,0"
       style="fill:none;stroke:#000000;stroke-width:2;stroke-linecap:butt;stroke-linejoin:miter;stroke-opacity:1" />
    <path
       inkscape:connector-curvature="0"
       id="path3063"
       d="m 172.5,937.36217 -25,0"
       style="fill:none;stroke:#000000;stroke-width:2;stroke-linecap:butt;stroke-linejoin:miter;stroke-opacity:1" />
    <path
       sodipodi:nodetypes="cccc"
       inkscape:connector-curvature="0"
       id="path3065"
       d="m 160,923.36217 -3,-10 6,0 z"
       style="fill:#000000;stroke:none" />
    <path
       style="fill:#000000;stroke:none"
       d="m 160,936.36217 3,10 -6,0 z"
       id="path3067"
       inkscape:connector-curvature="0"
       sodipodi:nodetypes="cccc" />
    <path
       sodipodi:nodetypes="cc"
       style="fill:none;stroke:#000000;stroke-width:2;stroke-linecap:butt;stroke-linejoin:miter;stroke-opacity:1"
       d="m 160,952.36217 0,-45"
       id="path3069"
       inkscape:connector-curvature="0" />
    <text
       xml:space="preserve"
       style="font-size:40px;font-style:italic;font-weight:normal;line-height:125%;letter-spacing:0px;word-spacing:0px;fill:#000000;fill-opacity:1;stroke:none;font-family:Sans;-inkscape-font-specification:Sans Italic"
       x="30"
       y="1008.8622"
       id="text3083"
       sodipodi:linespacing="125%"><tspan
         sodipodi:role="line"
         id="tspan3085"
         x="30"
         y="1008.8622"
         style="font-size:24px">x</tspan></text>
    <text
       sodipodi:linespacing="125%"
       id="text3087"
       y="912.36218"
       x="165"
       style="font-size:40px;font-style:italic;font-weight:normal;line-height:125%;letter-spacing:0px;word-spacing:0px;fill:#000000;fill-opacity:1;stroke:none;font-family:Sans;-inkscape-font-specification:Sans Italic"
       xml:space="preserve"><tspan
         style="font-size:24px"
         y="912.36218"
         x="165"
         id="tspan3089"
         sodipodi:role="line">y</tspan></text>
  </g>
</svg>
