<?xml version="1.0" encoding="UTF-8" standalone="no"?>
<!-- Created with Inkscape (http://www.inkscape.org/) -->

<svg
   xmlns:dc="http://purl.org/dc/elements/1.1/"
   xmlns:cc="http://creativecommons.org/ns#"
   xmlns:rdf="http://www.w3.org/1999/02/22-rdf-syntax-ns#"
   xmlns:svg="http://www.w3.org/2000/svg"
   xmlns="http://www.w3.org/2000/svg"
   xmlns:sodipodi="http://sodipodi.sourceforge.net/DTD/sodipodi-0.dtd"
   xmlns:inkscape="http://www.inkscape.org/namespaces/inkscape"
   width="1052.3622"
   height="744.09448"
   viewBox="0 0 1052.3622 744.09448"
   id="svg2"
   version="1.1"
   inkscape:version="0.91 r13725"
   sodipodi:docname="page_property_1.svg"
   inkscape:export-filename="/home/a/kicad-doc/src/pl_editor/images/ru/page_property_1.png"
   inkscape:export-xdpi="90"
   inkscape:export-ydpi="90">
  <sodipodi:namedview
     id="base"
     pagecolor="#ffffff"
     bordercolor="#666666"
     borderopacity="1.0"
     inkscape:pageopacity="0.0"
     inkscape:pageshadow="2"
     inkscape:zoom="1.8901882"
     inkscape:cx="470.45126"
     inkscape:cy="418.19803"
     inkscape:document-units="px"
     inkscape:current-layer="layer1"
     showgrid="false"
     units="px"
     inkscape:window-width="1920"
     inkscape:window-height="1009"
     inkscape:window-x="0"
     inkscape:window-y="25"
     inkscape:window-maximized="1"
     showguides="true"
     inkscape:guide-bbox="true">
    <sodipodi:guide
       position="483.358,252.03306"
       orientation="0,1"
       id="guide4185" />
    <sodipodi:guide
       position="113.64216,589.92908"
       orientation="0,1"
       id="guide4187" />
    <sodipodi:guide
       position="139.90613,401.03056"
       orientation="1,0"
       id="guide4189" />
    <sodipodi:guide
       position="769.23117,389.4138"
       orientation="1,0"
       id="guide4191" />
  </sodipodi:namedview>
  <defs
     id="defs4">
    <marker
       inkscape:isstock="true"
       style="overflow:visible;"
       id="marker4965"
       refX="0.0"
       refY="0.0"
       orient="auto"
       inkscape:stockid="Arrow2Mend">
      <path
         transform="scale(0.6) rotate(180) translate(0,0)"
         d="M 8.7185878,4.0337352 L -2.2072895,0.016013256 L 8.7185884,-4.0017078 C 6.9730900,-1.6296469 6.9831476,1.6157441 8.7185878,4.0337352 z "
         style="fill-rule:evenodd;stroke-width:0.625;stroke-linejoin:round;stroke:#000000;stroke-opacity:1;fill:#000000;fill-opacity:1"
         id="path4967" />
    </marker>
    <marker
       inkscape:isstock="true"
       style="overflow:visible"
       id="marker4877"
       refX="0.0"
       refY="0.0"
       orient="auto"
       inkscape:stockid="Arrow2Mstart">
      <path
         transform="scale(0.6) translate(0,0)"
         d="M 8.7185878,4.0337352 L -2.2072895,0.016013256 L 8.7185884,-4.0017078 C 6.9730900,-1.6296469 6.9831476,1.6157441 8.7185878,4.0337352 z "
         style="fill-rule:evenodd;stroke-width:0.625;stroke-linejoin:round;stroke:#000000;stroke-opacity:1;fill:#000000;fill-opacity:1"
         id="path4879" />
    </marker>
    <marker
       inkscape:isstock="true"
       style="overflow:visible;"
       id="marker4505"
       refX="0.0"
       refY="0.0"
       orient="auto"
       inkscape:stockid="Arrow2Mend">
      <path
         transform="scale(0.6) rotate(180) translate(0,0)"
         d="M 8.7185878,4.0337352 L -2.2072895,0.016013256 L 8.7185884,-4.0017078 C 6.9730900,-1.6296469 6.9831476,1.6157441 8.7185878,4.0337352 z "
         style="fill-rule:evenodd;stroke-width:0.625;stroke-linejoin:round;stroke:#000000;stroke-opacity:1;fill:#000000;fill-opacity:1"
         id="path4507" />
    </marker>
    <marker
       inkscape:isstock="true"
       style="overflow:visible"
       id="marker4429"
       refX="0.0"
       refY="0.0"
       orient="auto"
       inkscape:stockid="Arrow2Mstart">
      <path
         transform="scale(0.6) translate(0,0)"
         d="M 8.7185878,4.0337352 L -2.2072895,0.016013256 L 8.7185884,-4.0017078 C 6.9730900,-1.6296469 6.9831476,1.6157441 8.7185878,4.0337352 z "
         style="fill-rule:evenodd;stroke-width:0.625;stroke-linejoin:round;stroke:#000000;stroke-opacity:1;fill:#000000;fill-opacity:1"
         id="path4431" />
    </marker>
    <marker
       inkscape:isstock="true"
       style="overflow:visible;"
       id="marker8225"
       refX="0.0"
       refY="0.0"
       orient="auto"
       inkscape:stockid="Arrow2Mend">
      <path
         transform="scale(0.6) rotate(180) translate(0,0)"
         d="M 8.7185878,4.0337352 L -2.2072895,0.016013256 L 8.7185884,-4.0017078 C 6.9730900,-1.6296469 6.9831476,1.6157441 8.7185878,4.0337352 z "
         style="fill-rule:evenodd;stroke-width:0.625;stroke-linejoin:round;stroke:#000000;stroke-opacity:1;fill:#000000;fill-opacity:1"
         id="path8227" />
    </marker>
    <marker
       inkscape:isstock="true"
       style="overflow:visible"
       id="marker8215"
       refX="0.0"
       refY="0.0"
       orient="auto"
       inkscape:stockid="Arrow2Mstart">
      <path
         transform="scale(0.6) translate(0,0)"
         d="M 8.7185878,4.0337352 L -2.2072895,0.016013256 L 8.7185884,-4.0017078 C 6.9730900,-1.6296469 6.9831476,1.6157441 8.7185878,4.0337352 z "
         style="fill-rule:evenodd;stroke-width:0.625;stroke-linejoin:round;stroke:#000000;stroke-opacity:1;fill:#000000;fill-opacity:1"
         id="path8217" />
    </marker>
    <marker
       inkscape:stockid="Arrow2Mend"
       orient="auto"
       refY="0.0"
       refX="0.0"
       id="marker7383"
       style="overflow:visible;"
       inkscape:isstock="true"
       inkscape:collect="always">
      <path
         id="path7385"
         style="fill-rule:evenodd;stroke-width:0.625;stroke-linejoin:round;stroke:#000000;stroke-opacity:1;fill:#000000;fill-opacity:1"
         d="M 8.7185878,4.0337352 L -2.2072895,0.016013256 L 8.7185884,-4.0017078 C 6.9730900,-1.6296469 6.9831476,1.6157441 8.7185878,4.0337352 z "
         transform="scale(0.6) rotate(180) translate(0,0)" />
    </marker>
    <marker
       inkscape:stockid="Arrow2Mstart"
       orient="auto"
       refY="0.0"
       refX="0.0"
       id="marker7373"
       style="overflow:visible"
       inkscape:isstock="true"
       inkscape:collect="always">
      <path
         id="path7375"
         style="fill-rule:evenodd;stroke-width:0.625;stroke-linejoin:round;stroke:#000000;stroke-opacity:1;fill:#000000;fill-opacity:1"
         d="M 8.7185878,4.0337352 L -2.2072895,0.016013256 L 8.7185884,-4.0017078 C 6.9730900,-1.6296469 6.9831476,1.6157441 8.7185878,4.0337352 z "
         transform="scale(0.6) translate(0,0)" />
    </marker>
    <marker
       inkscape:stockid="Arrow2Mend"
       orient="auto"
       refY="0.0"
       refX="0.0"
       id="marker5471"
       style="overflow:visible;"
       inkscape:isstock="true"
       inkscape:collect="always">
      <path
         id="path5473"
         style="fill-rule:evenodd;stroke-width:0.625;stroke-linejoin:round;stroke:#000000;stroke-opacity:1;fill:#000000;fill-opacity:1"
         d="M 8.7185878,4.0337352 L -2.2072895,0.016013256 L 8.7185884,-4.0017078 C 6.9730900,-1.6296469 6.9831476,1.6157441 8.7185878,4.0337352 z "
         transform="scale(0.6) rotate(180) translate(0,0)" />
    </marker>
    <marker
       inkscape:stockid="Arrow2Mstart"
       orient="auto"
       refY="0.0"
       refX="0.0"
       id="marker5445"
       style="overflow:visible"
       inkscape:isstock="true"
       inkscape:collect="always">
      <path
         id="path5447"
         style="fill-rule:evenodd;stroke-width:0.625;stroke-linejoin:round;stroke:#000000;stroke-opacity:1;fill:#000000;fill-opacity:1"
         d="M 8.7185878,4.0337352 L -2.2072895,0.016013256 L 8.7185884,-4.0017078 C 6.9730900,-1.6296469 6.9831476,1.6157441 8.7185878,4.0337352 z "
         transform="scale(0.6) translate(0,0)" />
    </marker>
    <marker
       inkscape:stockid="Arrow2Mend"
       orient="auto"
       refY="0.0"
       refX="0.0"
       id="Arrow2Mend"
       style="overflow:visible;"
       inkscape:isstock="true">
      <path
         id="path4272"
         style="fill-rule:evenodd;stroke-width:0.625;stroke-linejoin:round;stroke:#000000;stroke-opacity:1;fill:#000000;fill-opacity:1"
         d="M 8.7185878,4.0337352 L -2.2072895,0.016013256 L 8.7185884,-4.0017078 C 6.9730900,-1.6296469 6.9831476,1.6157441 8.7185878,4.0337352 z "
         transform="scale(0.6) rotate(180) translate(0,0)" />
    </marker>
    <marker
       inkscape:stockid="Arrow2Mstart"
       orient="auto"
       refY="0.0"
       refX="0.0"
       id="Arrow2Mstart"
       style="overflow:visible"
       inkscape:isstock="true">
      <path
         id="path4269"
         style="fill-rule:evenodd;stroke-width:0.625;stroke-linejoin:round;stroke:#000000;stroke-opacity:1;fill:#000000;fill-opacity:1"
         d="M 8.7185878,4.0337352 L -2.2072895,0.016013256 L 8.7185884,-4.0017078 C 6.9730900,-1.6296469 6.9831476,1.6157441 8.7185878,4.0337352 z "
         transform="scale(0.6) translate(0,0)" />
    </marker>
    <marker
       inkscape:stockid="Arrow1Lend"
       orient="auto"
       refY="0.0"
       refX="0.0"
       id="Arrow1Lend"
       style="overflow:visible;"
       inkscape:isstock="true">
      <path
         id="path4248"
         d="M 0.0,0.0 L 5.0,-5.0 L -12.5,0.0 L 5.0,5.0 L 0.0,0.0 z "
         style="fill-rule:evenodd;stroke:#000000;stroke-width:1pt;stroke-opacity:1;fill:#000000;fill-opacity:1"
         transform="scale(0.8) rotate(180) translate(12.5,0)" />
    </marker>
    <marker
       inkscape:stockid="Arrow1Lstart"
       orient="auto"
       refY="0.0"
       refX="0.0"
       id="Arrow1Lstart"
       style="overflow:visible"
       inkscape:isstock="true">
      <path
         id="path4245"
         d="M 0.0,0.0 L 5.0,-5.0 L -12.5,0.0 L 5.0,5.0 L 0.0,0.0 z "
         style="fill-rule:evenodd;stroke:#000000;stroke-width:1pt;stroke-opacity:1;fill:#000000;fill-opacity:1"
         transform="scale(0.8) translate(12.5,0)" />
    </marker>
  </defs>
  <metadata
     id="metadata7">
    <rdf:RDF>
      <cc:Work
         rdf:about="">
        <dc:format>image/svg+xml</dc:format>
        <dc:type
           rdf:resource="http://purl.org/dc/dcmitype/StillImage" />
        <dc:title />
      </cc:Work>
    </rdf:RDF>
  </metadata>
  <g
     transform="translate(0,-308.26772)"
     id="layer1"
     inkscape:groupmode="layer"
     inkscape:label="Layer 1">
    <rect
       y="434.96353"
       x="104.85015"
       height="398.40128"
       width="698.40125"
       id="rect4138"
       style="fill:none;stroke:#000000;stroke-width:1;stroke-linecap:round;stroke-miterlimit:0;stroke-dasharray:3,3;stroke-dashoffset:0;stroke-opacity:1" />
    <g
       id="g4203">
      <text
         sodipodi:linespacing="125%"
         id="text4195"
         y="745.96619"
         x="219.41212"
         style="font-style:normal;font-weight:normal;font-size:13.58998585px;line-height:125%;font-family:Sans;letter-spacing:0px;word-spacing:0px;fill:#000000;fill-opacity:1;stroke:none;stroke-width:1px;stroke-linecap:butt;stroke-linejoin:miter;stroke-opacity:1"
         xml:space="preserve"><tspan
           style="text-align:center;text-anchor:middle;font-size:12.5px"
           y="745.96619"
           x="219.41212"
           id="tspan4197"
           sodipodi:role="line">Левый нижний</tspan><tspan
           style="text-align:center;text-anchor:middle;font-size:12.5px"
           id="tspan4199"
           y="762.95367"
           x="219.41212"
           sodipodi:role="line">базовый угол</tspan></text>
      <path
         sodipodi:nodetypes="zccccccccczzzzzzcccccccczzzzzz"
         style="fill:none;stroke:#000000;stroke-width:1.28923488;stroke-linecap:round;stroke-miterlimit:0;stroke-dasharray:none;stroke-dashoffset:0;stroke-opacity:1"
         d="m 168.91609,730.62758 c 2.88397,-0.86772 10.02855,0 10.02855,0 l 10.02869,0 10.0273,0 10.02804,0 10.02822,0 10.02839,0 10.02834,0 10.02952,0 10.029,0 c 0,0 7.16687,-0.87652 10.02812,0 2.86124,0.87653 5.12378,1.98299 6.85121,4.41237 1.72743,2.42937 2.54146,5.17626 3.17718,8.97204 0.63573,3.79579 0.63573,9.58853 0,13.38434 -0.63572,3.7958 -1.29267,6.51251 -3.17718,8.97214 -1.88452,2.45963 -4.60215,3.54889 -7.76276,4.41237 -3.1606,0.86349 -10.93932,0 -10.93932,0 l -10.93953,0 -10.94039,0 -10.93925,0 -10.93943,0 -10.93989,0 -61.95291,28.78934 40.07217,-28.78934 c 0,0 -7.79905,0.9076 -10.94109,0 -3.14205,-0.90759 -5.42191,-2.01533 -7.62505,-4.60421 -2.20313,-2.58889 -2.64666,-5.00978 -3.31531,-8.7802 -0.66865,-3.77041 -0.60978,-9.59453 0,-13.38433 0.60979,-3.7898 1.13351,-6.45335 3.03903,-8.97215 1.90553,-2.5188 4.10438,-3.54464 6.98835,-4.41237 z"
         id="path4201"
         inkscape:connector-curvature="0" />
    </g>
    <g
       id="g4209"
       transform="matrix(-1,0,0,1,910.96286,0.43944559)">
      <text
         xml:space="preserve"
         style="font-style:normal;font-weight:normal;font-size:13.58998585px;line-height:125%;font-family:Sans;letter-spacing:0px;word-spacing:0px;fill:#000000;fill-opacity:1;stroke:none;stroke-width:1px;stroke-linecap:butt;stroke-linejoin:miter;stroke-opacity:1"
         x="-218.7021"
         y="745.96619"
         id="text4211"
         sodipodi:linespacing="125%"
         transform="scale(-1,1)"><tspan
           sodipodi:role="line"
           id="tspan4213"
           x="-218.7021"
           y="745.96619"
           style="font-size:12.5px;text-align:center;text-anchor:middle">Правый нижний</tspan><tspan
           sodipodi:role="line"
           x="-218.7021"
           y="761.59119"
           id="tspan4215"
           style="font-size:12.5px;text-align:center;text-anchor:middle">базовый угол</tspan></text>
      <path
         inkscape:connector-curvature="0"
         id="path4217"
         d="m 168.91609,730.62758 c 2.88397,-0.86772 10.02855,0 10.02855,0 l 10.02869,0 10.0273,0 10.02804,0 10.02822,0 10.02839,0 10.02834,0 10.02952,0 10.029,0 c 0,0 7.16687,-0.87652 10.02812,0 2.86124,0.87653 5.12378,1.98299 6.85121,4.41237 1.72743,2.42937 2.54146,5.17626 3.17718,8.97204 0.63573,3.79579 0.63573,9.58853 0,13.38434 -0.63572,3.7958 -1.29267,6.51251 -3.17718,8.97214 -1.88452,2.45963 -4.60215,3.54889 -7.76276,4.41237 -3.1606,0.86349 -10.93932,0 -10.93932,0 l -10.93953,0 -10.94039,0 -10.93925,0 -10.93943,0 -10.93989,0 -61.95291,28.78934 40.07217,-28.78934 c 0,0 -7.79905,0.9076 -10.94109,0 -3.14205,-0.90759 -5.42191,-2.01533 -7.62505,-4.60421 -2.20313,-2.58889 -2.64666,-5.00978 -3.31531,-8.7802 -0.66865,-3.77041 -0.60978,-9.59453 0,-13.38433 0.60979,-3.7898 1.13351,-6.45335 3.03903,-8.97215 1.90553,-2.5188 4.10438,-3.54464 6.98835,-4.41237 z"
         style="fill:none;stroke:#000000;stroke-width:1.28923488;stroke-linecap:round;stroke-miterlimit:0;stroke-dasharray:none;stroke-dashoffset:0;stroke-opacity:1"
         sodipodi:nodetypes="zccccccccczzzzzzcccccccczzzzzz" />
    </g>
    <g
       id="g4219"
       transform="matrix(1,0,0,-1,-0.52904784,1268.3287)">
      <text
         xml:space="preserve"
         style="font-style:normal;font-weight:normal;font-size:13.58998585px;line-height:125%;font-family:Sans;letter-spacing:0px;word-spacing:0px;fill:#000000;fill-opacity:1;stroke:none;stroke-width:1px;stroke-linecap:butt;stroke-linejoin:miter;stroke-opacity:1"
         x="219.41212"
         y="-754.69421"
         id="text4221"
         sodipodi:linespacing="125%"
         transform="scale(1,-1)"><tspan
           sodipodi:role="line"
           id="tspan4223"
           x="219.41212"
           y="-754.69421"
           style="font-size:12.5px;text-align:center;text-anchor:middle">Левый верхний</tspan><tspan
           sodipodi:role="line"
           x="219.41212"
           y="-739.06921"
           id="tspan4225"
           style="font-size:12.5px;text-align:center;text-anchor:middle">базовый угол</tspan></text>
      <path
         inkscape:connector-curvature="0"
         id="path4227"
         d="m 168.91609,730.62758 c 2.88397,-0.86772 10.02855,0 10.02855,0 l 10.02869,0 10.0273,0 10.02804,0 10.02822,0 10.02839,0 10.02834,0 10.02952,0 10.029,0 c 0,0 7.16687,-0.87652 10.02812,0 2.86124,0.87653 5.12378,1.98299 6.85121,4.41237 1.72743,2.42937 2.54146,5.17626 3.17718,8.97204 0.63573,3.79579 0.63573,9.58853 0,13.38434 -0.63572,3.7958 -1.29267,6.51251 -3.17718,8.97214 -1.88452,2.45963 -4.60215,3.54889 -7.76276,4.41237 -3.1606,0.86349 -10.93932,0 -10.93932,0 l -10.93953,0 -10.94039,0 -10.93925,0 -10.93943,0 -10.93989,0 -61.95291,28.78934 40.07217,-28.78934 c 0,0 -7.79905,0.9076 -10.94109,0 -3.14205,-0.90759 -5.42191,-2.01533 -7.62505,-4.60421 -2.20313,-2.58889 -2.64666,-5.00978 -3.31531,-8.7802 -0.66865,-3.77041 -0.60978,-9.59453 0,-13.38433 0.60979,-3.7898 1.13351,-6.45335 3.03903,-8.97215 1.90553,-2.5188 4.10438,-3.54464 6.98835,-4.41237 z"
         style="fill:none;stroke:#000000;stroke-width:1.28923488;stroke-linecap:round;stroke-miterlimit:0;stroke-dasharray:none;stroke-dashoffset:0;stroke-opacity:1"
         sodipodi:nodetypes="zccccccccczzzzzzcccccccczzzzzz" />
    </g>
    <g
       transform="matrix(-1,0,0,-1,909.37572,1268.4182)"
       id="g4229">
      <text
         transform="scale(-1,-1)"
         sodipodi:linespacing="125%"
         id="text4231"
         y="-754.69421"
         x="-218.7021"
         style="font-style:normal;font-weight:normal;font-size:13.58998585px;line-height:125%;font-family:Sans;letter-spacing:0px;word-spacing:0px;fill:#000000;fill-opacity:1;stroke:none;stroke-width:1px;stroke-linecap:butt;stroke-linejoin:miter;stroke-opacity:1"
         xml:space="preserve"><tspan
           style="font-size:12.5px;text-align:center;text-anchor:middle"
           y="-754.69421"
           x="-218.7021"
           id="tspan4233"
           sodipodi:role="line">Правый верхний</tspan><tspan
           style="font-size:12.5px;text-align:center;text-anchor:middle"
           id="tspan4235"
           y="-739.06921"
           x="-218.7021"
           sodipodi:role="line">базовый угол</tspan></text>
      <path
         sodipodi:nodetypes="zccccccccczzzzzzcccccccczzzzzz"
         style="fill:none;stroke:#000000;stroke-width:1.28923488;stroke-linecap:round;stroke-miterlimit:0;stroke-dasharray:none;stroke-dashoffset:0;stroke-opacity:1"
         d="m 168.91609,730.62758 c 2.88397,-0.86772 10.02855,0 10.02855,0 l 10.02869,0 10.0273,0 10.02804,0 10.02822,0 10.02839,0 10.02834,0 10.02952,0 10.029,0 c 0,0 7.16687,-0.87652 10.02812,0 2.86124,0.87653 5.12378,1.98299 6.85121,4.41237 1.72743,2.42937 2.54146,5.17626 3.17718,8.97204 0.63573,3.79579 0.63573,9.58853 0,13.38434 -0.63572,3.7958 -1.29267,6.51251 -3.17718,8.97214 -1.88452,2.45963 -4.60215,3.54889 -7.76276,4.41237 -3.1606,0.86349 -10.93932,0 -10.93932,0 l -10.93953,0 -10.94039,0 -10.93925,0 -10.93943,0 -10.93989,0 -61.95291,28.78934 40.07217,-28.78934 c 0,0 -7.79905,0.9076 -10.94109,0 -3.14205,-0.90759 -5.42191,-2.01533 -7.62505,-4.60421 -2.20313,-2.58889 -2.64666,-5.00978 -3.31531,-8.7802 -0.66865,-3.77041 -0.60978,-9.59453 0,-13.38433 0.60979,-3.7898 1.13351,-6.45335 3.03903,-8.97215 1.90553,-2.5188 4.10438,-3.54464 6.98835,-4.41237 z"
         id="path4237"
         inkscape:connector-curvature="0" />
    </g>
    <g
       id="g5375">
      <path
         inkscape:connector-curvature="0"
         id="path4239"
         d="m 228.32831,721.31266 -71.59019,0 0,-51.37028"
         style="fill:none;fill-rule:evenodd;stroke:#000000;stroke-width:1;stroke-linecap:butt;stroke-linejoin:miter;stroke-opacity:1;marker-start:url(#Arrow2Mstart);marker-end:url(#Arrow2Mend);stroke-miterlimit:4;stroke-dasharray:none" />
      <text
         sodipodi:linespacing="125%"
         id="text5367"
         y="677.00507"
         x="160.95319"
         style="font-style:normal;font-weight:normal;font-size:10.51976299px;line-height:125%;font-family:Sans;letter-spacing:0px;word-spacing:0px;fill:#000000;fill-opacity:1;stroke:none;stroke-width:1px;stroke-linecap:butt;stroke-linejoin:miter;stroke-opacity:1"
         xml:space="preserve"><tspan
           y="677.00507"
           x="160.95319"
           id="tspan5369"
           sodipodi:role="line">+Y</tspan></text>
      <text
         xml:space="preserve"
         style="font-style:normal;font-weight:normal;font-size:10.51976299px;line-height:125%;font-family:Sans;letter-spacing:0px;word-spacing:0px;fill:#000000;fill-opacity:1;stroke:none;stroke-width:1px;stroke-linecap:butt;stroke-linejoin:miter;stroke-opacity:1"
         x="213.81033"
         y="717.00507"
         id="text5371"
         sodipodi:linespacing="125%"><tspan
           sodipodi:role="line"
           id="tspan5373"
           x="213.81033"
           y="717.00507">+X</tspan></text>
    </g>
    <g
       id="g5382"
       transform="matrix(1,0,0,-1,-0.17190498,1267.6222)">
      <path
         style="fill:none;fill-rule:evenodd;stroke:#000000;stroke-width:1;stroke-linecap:butt;stroke-linejoin:miter;stroke-miterlimit:4;stroke-dasharray:none;stroke-opacity:1;marker-start:url(#Arrow2Mstart);marker-end:url(#Arrow2Mend)"
         d="m 228.32831,721.31266 -71.59019,0 0,-51.37028"
         id="path5384"
         inkscape:connector-curvature="0" />
      <text
         xml:space="preserve"
         style="font-style:normal;font-weight:normal;font-size:10.51976299px;line-height:125%;font-family:Sans;letter-spacing:0px;word-spacing:0px;fill:#000000;fill-opacity:1;stroke:none;stroke-width:1px;stroke-linecap:butt;stroke-linejoin:miter;stroke-opacity:1"
         x="160.95319"
         y="-669.33612"
         id="text5386"
         sodipodi:linespacing="125%"
         transform="scale(1,-1)"><tspan
           sodipodi:role="line"
           id="tspan5388"
           x="160.95319"
           y="-669.33612">+Y</tspan></text>
      <text
         sodipodi:linespacing="125%"
         id="text5390"
         y="-709.33612"
         x="213.81033"
         style="font-style:normal;font-weight:normal;font-size:10.51976299px;line-height:125%;font-family:Sans;letter-spacing:0px;word-spacing:0px;fill:#000000;fill-opacity:1;stroke:none;stroke-width:1px;stroke-linecap:butt;stroke-linejoin:miter;stroke-opacity:1"
         xml:space="preserve"
         transform="scale(1,-1)"><tspan
           y="-709.33612"
           x="213.81033"
           id="tspan5392"
           sodipodi:role="line">+X</tspan></text>
    </g>
    <g
       id="g5400"
       transform="matrix(-1,0,0,1,905.04198,1.4285714)">
      <path
         style="fill:none;fill-rule:evenodd;stroke:#000000;stroke-width:1;stroke-linecap:butt;stroke-linejoin:miter;stroke-miterlimit:4;stroke-dasharray:none;stroke-opacity:1;marker-start:url(#Arrow2Mstart);marker-end:url(#Arrow2Mend)"
         d="m 228.32831,721.31266 -71.59019,0 0,-51.37028"
         id="path5402"
         inkscape:connector-curvature="0" />
      <text
         xml:space="preserve"
         style="font-style:normal;font-weight:normal;font-size:10.51976299px;line-height:125%;font-family:Sans;letter-spacing:0px;word-spacing:0px;fill:#000000;fill-opacity:1;stroke:none;stroke-width:1px;stroke-linecap:butt;stroke-linejoin:miter;stroke-opacity:1"
         x="-177.32867"
         y="677.00507"
         id="text5404"
         sodipodi:linespacing="125%"
         transform="scale(-1,1)"><tspan
           sodipodi:role="line"
           id="tspan5406"
           x="-177.32867"
           y="677.00507">+Y</tspan></text>
      <text
         sodipodi:linespacing="125%"
         id="text5408"
         y="717.00507"
         x="-230.61729"
         style="font-style:normal;font-weight:normal;font-size:10.51976299px;line-height:125%;font-family:Sans;letter-spacing:0px;word-spacing:0px;fill:#000000;fill-opacity:1;stroke:none;stroke-width:1px;stroke-linecap:butt;stroke-linejoin:miter;stroke-opacity:1"
         xml:space="preserve"
         transform="scale(-1,1)"><tspan
           y="717.00507"
           x="-230.61729"
           id="tspan5410"
           sodipodi:role="line">+X</tspan></text>
    </g>
    <g
       transform="matrix(-1,0,0,-1,903.0977,1269.5798)"
       id="g5412">
      <path
         inkscape:connector-curvature="0"
         id="path5414"
         d="m 228.32831,721.31266 -71.59019,0 0,-51.37028"
         style="fill:none;fill-rule:evenodd;stroke:#000000;stroke-width:1;stroke-linecap:butt;stroke-linejoin:miter;stroke-miterlimit:4;stroke-dasharray:none;stroke-opacity:1;marker-start:url(#Arrow2Mstart);marker-end:url(#Arrow2Mend)" />
      <text
         transform="scale(-1,-1)"
         sodipodi:linespacing="125%"
         id="text5416"
         y="-669.33612"
         x="-177.32867"
         style="font-style:normal;font-weight:normal;font-size:10.51976299px;line-height:125%;font-family:Sans;letter-spacing:0px;word-spacing:0px;fill:#000000;fill-opacity:1;stroke:none;stroke-width:1px;stroke-linecap:butt;stroke-linejoin:miter;stroke-opacity:1"
         xml:space="preserve"><tspan
           y="-669.33612"
           x="-177.32867"
           id="tspan5418"
           sodipodi:role="line">+Y</tspan></text>
      <text
         transform="scale(-1,-1)"
         xml:space="preserve"
         style="font-style:normal;font-weight:normal;font-size:10.51976299px;line-height:125%;font-family:Sans;letter-spacing:0px;word-spacing:0px;fill:#000000;fill-opacity:1;stroke:none;stroke-width:1px;stroke-linecap:butt;stroke-linejoin:miter;stroke-opacity:1"
         x="-230.61729"
         y="-709.33612"
         id="text5420"
         sodipodi:linespacing="125%"><tspan
           sodipodi:role="line"
           id="tspan5422"
           x="-230.61729"
           y="-709.33612">+X</tspan></text>
    </g>
    <g
       id="g5430"
       transform="translate(-115.1574,-31.314729)">
      <path
         inkscape:connector-curvature="0"
         id="path4193"
         d="m 433.88946,600.62009 c 1.69218,-0.57532 5.88431,0 5.88431,0 l 5.88439,0 5.88358,0 57.26795,-120.26786 -45.49981,120.26786 5.88422,0 5.88419,0 5.88488,0 5.88457,0 c 0,0 4.20521,-0.58116 5.88406,0 1.67886,0.58114 3.00642,1.31475 4.01999,2.92547 1.01359,1.61071 1.49121,3.43195 1.86424,5.94863 0.37301,2.51666 0.37301,6.35737 0,8.87406 -0.37303,2.51668 -0.75848,4.3179 -1.86424,5.94868 -1.10575,1.63079 -2.70034,2.35298 -4.55484,2.92549 -1.85451,0.5725 -6.41872,0 -6.41872,0 l -6.41883,0 -6.41934,0 -6.41867,0 -6.41879,0 -6.41904,0 -6.41923,0 -6.41942,0 c 0,0 -4.57615,0.60174 -6.41976,0 -1.84361,-0.60176 -3.18133,-1.33621 -4.47404,-3.05268 -1.2927,-1.71648 -1.55294,-3.32157 -1.94528,-5.82142 -0.18113,-1.1541 -185.3355,36.01185 -191.50557,37.13331 5.39089,-1.26517 191.31296,-44.6547 191.50557,-46.00737 0.35779,-2.51271 0.6651,-4.27869 1.78317,-5.9487 1.11808,-1.67 2.40827,-2.35016 4.10046,-2.92547 z"
         style="fill:none;stroke:#000000;stroke-width:0.80412489;stroke-linecap:round;stroke-miterlimit:0;stroke-dasharray:none;stroke-dashoffset:0;stroke-opacity:1"
         sodipodi:nodetypes="zccccccccczzzzzzcccccccczzscszz" />
      <text
         sodipodi:linespacing="125%"
         id="text5426"
         y="619.6441"
         x="442.39816"
         style="font-style:normal;font-weight:normal;font-size:15.97146606px;line-height:125%;font-family:Sans;letter-spacing:0px;word-spacing:0px;fill:#000000;fill-opacity:1;stroke:none;stroke-width:1px;stroke-linecap:butt;stroke-linejoin:miter;stroke-opacity:1"
         xml:space="preserve"><tspan
           y="619.6441"
           x="442.39816"
           id="tspan5428"
           sodipodi:role="line">Поля</tspan></text>
    </g>
    <g
       transform="translate(134.85536,43.941635)"
       id="g5435">
      <path
         sodipodi:nodetypes="zccccccccczzccczzcccccccczzzzzz"
         style="fill:none;stroke:#000000;stroke-width:0.80412489;stroke-linecap:round;stroke-miterlimit:0;stroke-dasharray:none;stroke-dashoffset:0;stroke-opacity:1"
         d="m 433.88946,600.62009 c 1.69218,-0.57532 5.88431,0 5.88431,0 l 5.88439,0 5.88358,0 5.88402,0 5.88412,0 5.88422,0 5.88419,0 5.88488,0 5.88457,0 c 0,0 4.20521,-0.58116 5.88406,0 1.67886,0.58114 3.00642,1.31475 4.01999,2.92547 1.01359,1.61071 1.49123,3.43195 1.86424,5.94863 0.18051,1.21791 148.5326,-14.08446 152.86875,-14.37686 -4.59203,1.10434 -152.67625,21.95215 -152.86875,23.25092 -0.37301,2.51668 -0.75848,4.3179 -1.86424,5.94868 -1.10575,1.63079 -2.70034,2.35298 -4.55484,2.92549 -1.85451,0.5725 -6.41872,0 -6.41872,0 l -6.41883,0 -59.63363,144.64286 46.79562,-144.64286 -6.41879,0 -6.41904,0 -6.41923,0 -6.41942,0 c 0,0 -4.57615,0.60174 -6.41976,0 -1.84361,-0.60176 -3.18133,-1.33621 -4.47404,-3.05268 -1.2927,-1.71648 -1.55294,-3.32157 -1.94528,-5.82142 -0.39234,-2.49986 -0.35779,-6.36136 0,-8.87406 0.3578,-2.51271 0.6651,-4.27869 1.78317,-5.9487 1.11808,-1.67 2.40827,-2.35016 4.10046,-2.92547 z"
         id="path5437"
         inkscape:connector-curvature="0" />
      <text
         xml:space="preserve"
         style="font-style:normal;font-weight:normal;font-size:15.97146606px;line-height:125%;font-family:Sans;letter-spacing:0px;word-spacing:0px;fill:#000000;fill-opacity:1;stroke:none;stroke-width:1px;stroke-linecap:butt;stroke-linejoin:miter;stroke-opacity:1"
         x="442.39816"
         y="619.6441"
         id="text5439"
         sodipodi:linespacing="125%"><tspan
           sodipodi:role="line"
           id="tspan5441"
           x="442.39816"
           y="619.6441">Поля</tspan></text>
    </g>
    <path
       style="fill:none;fill-rule:evenodd;stroke:#000000;stroke-width:1;stroke-linecap:butt;stroke-linejoin:miter;stroke-opacity:1;marker-start:url(#marker5445);marker-end:url(#marker5471);stroke-miterlimit:4;stroke-dasharray:none"
       d="m 551.42998,801.87822 0,29.5891"
       id="path5443"
       inkscape:connector-curvature="0" />
    <path
       style="fill:none;fill-rule:evenodd;stroke:#000000;stroke-width:1;stroke-linecap:butt;stroke-linejoin:miter;stroke-miterlimit:4;stroke-dasharray:none;stroke-opacity:1;marker-start:url(#marker7373);marker-end:url(#marker7383)"
       d="m 137.94736,626.33904 -30.20832,0"
       id="path7371"
       inkscape:connector-curvature="0" />
    <g
       id="g9203"
       transform="translate(16.667517,19.697975)">
      <path
         sodipodi:nodetypes="zccccccccczzzzzzcccccccczzzzzz"
         style="fill:none;stroke:#000000;stroke-width:1;stroke-linecap:round;stroke-miterlimit:0;stroke-dasharray:none;stroke-dashoffset:0;stroke-opacity:1"
         d="m 461.71964,503.57413 c 2.63617,-0.57113 9.16687,0 9.16687,0 l 9.16699,0 9.16573,0 9.1664,0 -32.24969,-87.88327 50.58298,87.88327 9.16668,0 9.16776,0 9.16728,0 c 0,0 6.55107,-0.57692 9.16647,0 2.6154,0.57692 4.68353,1.30519 6.26254,2.90419 1.579,1.59899 2.32309,3.40697 2.90419,5.90533 0.5811,2.49836 0.5811,6.3111 0,8.80947 -0.5811,2.49837 -1.1816,4.28649 -2.90419,5.9054 -1.7226,1.61891 -4.20672,2.33585 -7.09576,2.90419 -2.88904,0.56834 -9.99939,0 -9.99939,0 l -9.99957,0 -10.00036,0 -9.99932,0 -9.99949,0 -9.9999,0 -10.0002,0 -10.00049,0 c 0,0 -7.12893,0.59737 -10.001,0 -2.87207,-0.59737 -4.95604,-1.32648 -6.96988,-3.03046 -2.01383,-1.70399 -2.41925,-3.2974 -3.03045,-5.77906 -0.6112,-2.48166 -0.55739,-6.31505 0,-8.80947 0.55739,-2.49442 1.03611,-4.24755 2.77791,-5.9054 1.7418,-1.65786 3.75172,-2.33306 6.38789,-2.90419 z"
         id="path5424"
         inkscape:connector-curvature="0" />
      <text
         sodipodi:linespacing="125%"
         id="text9195"
         y="520.21118"
         x="507.50751"
         style="font-style:normal;font-weight:normal;font-size:13.1224184px;line-height:125%;font-family:Sans;text-align:center;letter-spacing:0px;word-spacing:0px;text-anchor:middle;fill:#000000;fill-opacity:1;stroke:none;stroke-width:1px;stroke-linecap:butt;stroke-linejoin:miter;stroke-opacity:1"
         xml:space="preserve"><tspan
           id="tspan9199"
           y="520.21118"
           x="507.50751"
           sodipodi:role="line">Граница листа</tspan></text>
    </g>
    <path
       style="fill:none;fill-rule:evenodd;stroke:#000000;stroke-width:0.5;stroke-linecap:butt;stroke-linejoin:miter;stroke-opacity:1;stroke-miterlimit:4;stroke-dasharray:none"
       d="m 105.28052,800.32914 697.8141,0"
       id="path4295"
       inkscape:connector-curvature="0" />
    <path
       style="fill:none;fill-rule:evenodd;stroke:#000000;stroke-width:0.5;stroke-linecap:butt;stroke-linejoin:miter;stroke-opacity:1;stroke-miterlimit:4;stroke-dasharray:none"
       d="m 139.90613,833.86544 0,-398.90207"
       id="path4297"
       inkscape:connector-curvature="0" />
    <path
       inkscape:connector-curvature="0"
       id="path4299"
       d="m 803.09462,468.49967 -697.8141,0"
       style="fill:none;fill-rule:evenodd;stroke:#000000;stroke-width:0.5;stroke-linecap:butt;stroke-linejoin:miter;stroke-miterlimit:4;stroke-dasharray:none;stroke-opacity:1" />
    <path
       inkscape:connector-curvature="0"
       id="path4301"
       d="m 768.46901,434.96337 0,398.90207"
       style="fill:none;fill-rule:evenodd;stroke:#000000;stroke-width:0.5;stroke-linecap:butt;stroke-linejoin:miter;stroke-miterlimit:4;stroke-dasharray:none;stroke-opacity:1" />
    <path
       inkscape:connector-curvature="0"
       id="path4427"
       d="m 396.41896,436.83521 0,29.5891"
       style="fill:none;fill-rule:evenodd;stroke:#000000;stroke-width:1;stroke-linecap:butt;stroke-linejoin:miter;stroke-miterlimit:4;stroke-dasharray:none;stroke-opacity:1;marker-start:url(#marker4429);marker-end:url(#marker4505)" />
    <path
       inkscape:connector-curvature="0"
       id="path4875"
       d="m 800.8443,636.39095 -30.20832,0"
       style="fill:none;fill-rule:evenodd;stroke:#000000;stroke-width:1;stroke-linecap:butt;stroke-linejoin:miter;stroke-miterlimit:4;stroke-dasharray:none;stroke-opacity:1;marker-start:url(#marker4877);marker-end:url(#marker4965)" />
  </g>
</svg>
